<?xml version="1.0" encoding="utf-8"?>
<!-- Generator: Adobe Illustrator 23.0.5, SVG Export Plug-In . SVG Version: 6.00 Build 0)  -->
<svg version="1.1" id="Layer_1" xmlns="http://www.w3.org/2000/svg" xmlns:xlink="http://www.w3.org/1999/xlink" x="0px" y="0px"
	 viewBox="0 0 92 92" style="enable-background:new 0 0 92 92;" xml:space="preserve">
<style type="text/css">
	.st0{fill:#D9271E;}
	.st1{fill:#D82A22;}
</style>
<g>
	<path class="st0" d="M50.32,49.01c0.71-6.13,1.41-12.25,2.12-18.38c0.11-0.95,0.21-1.89,0.35-2.83c0.51-3.53,0.52-3.54,4.22-3.53
		c7.55,0.03,15.1,0.06,22.65,0.1c1.6,0.01,3.16,0.29,4.7,0.71c4.39,1.19,6.99,4.44,7.18,8.95c0.27,6.5-3.45,11.97-9.59,14.09
		c-0.67,0.23-1.36,0.42-2.33,0.72c4.15,1.56,5.87,4.9,7.28,8.5c1.24,3.17,2.52,6.33,3.86,9.47c0.45,1.06,0.26,1.39-0.9,1.38
		c-4.21-0.04-8.43-0.07-12.64,0.01c-1.31,0.03-1.54-0.8-1.91-1.68c-1.83-4.3-3.69-8.59-5.54-12.89c-0.82-1.9-2.13-3.06-4.3-3.23
		c-1.34-0.11-1.85,0.37-1.98,1.65c-0.46,4.58-1.06,9.15-1.45,13.73c-0.15,1.72-0.57,2.56-2.53,2.45c-3.09-0.17-6.2-0.12-9.3-0.02
		c-1.66,0.05-2.23-0.33-1.89-2.13c0.47-2.44,0.6-4.95,0.93-7.98c-6.81,12.14-19.84,11.64-29.26,9.85c-0.99-0.19-1.6-0.59-0.98-1.75
		c0.25-0.48,0.21-1.11,0.45-1.59c0.81-1.58-0.42-4.45,2.33-4.7c1.87-0.17,3.78-0.71,5.81-0.03c2.63,0.87,5.38,0.7,7.6-1.36
		c2.37-2.21,1.98-5.15-0.87-6.65c-0.7-0.37-1.44-0.7-2.2-0.87c-1.64-0.35-2.71-0.96-3.02-2.9c-0.29-1.83-1.91-2.72-3.73-2.73
		c-1.39-0.01-1.64-0.47-1.18-1.67c0.2-0.51,0.22-1.09,0.36-1.62c0.46-1.73,0.38-3.35-1.15-4.54c-1.52-1.19-3.39-1.4-4.92-0.43
		c-1.8,1.14-2.86-0.38-4.04-0.85c-1.15-0.45-0.13-1.84,0.2-2.71c1.69-4.59,5.13-7.41,9.68-8.78c5.89-1.78,11.91-1.88,17.86-0.27
		c5.17,1.4,8.22,5.35,8.39,10.31c0.04,1.23-0.12,1.87-1.59,1.91c-3.17,0.07-6.35,0.32-9.52,0.53c-1.07,0.07-1.61-0.1-1.89-1.41
		c-0.84-3.95-6.29-5.68-9.52-3.15c-2.18,1.71-1.87,4.22,0.82,5.08c3.39,1.09,6.91,1.76,10.32,2.8
		C43.89,42.02,48.16,44.03,50.32,49.01z M70.79,31.15c-2.35-2.83-4.12-3.51-6.5-2.64c-2.31,0.84-3.79,3.14-3.7,5.82
		c0.07,2.09,1.02,3.83,2.33,5.35c1.92,2.22,3.93,4.36,5.86,6.49c2.17-1.75,4.25-3.45,6.36-5.12c2.42-1.92,4.23-4.26,5.11-7.27
		c0.82-2.78-0.53-4.94-3.38-5.28C74.36,28.2,72.36,29.09,70.79,31.15z"/>
	<path class="st1" d="M8.45,51.5c-1.21,0-2.4,0.02-3.58-0.01c-1.32-0.03-2.13-0.79-2.17-2.05c-0.04-1.3,0.85-1.97,2.1-2.14
		c0.16-0.02,0.32,0,0.48-0.02c4.4-0.31,4.4-0.31,5.41-4.56c0.18-0.77,0.44-1.53,0.58-2.3c0.33-1.87,1.52-2.24,3.15-1.86
		c1.82,0.42,1.49,1.8,1.27,3.04c-0.24,1.32-0.7,2.61-0.87,3.94c-0.07,0.51-0.96,1.39,0.32,1.7c1.14,0.27,1.51-0.36,1.72-1.37
		c0.34-1.71,0.83-3.38,1.19-5.08c0.36-1.7,1.31-2.5,3.05-2.14c1.89,0.39,1.73,1.73,1.41,3.15c-0.25,1.08-0.31,2.23-0.71,3.24
		c-0.85,2.1,0.11,2.47,1.9,2.27c0.47-0.05,0.95-0.03,1.43,0.01c1.35,0.13,2.31,0.76,2.21,2.25c-0.08,1.33-0.97,1.93-2.25,1.95
		c-1.11,0.02-2.22,0.05-3.33,0c-0.99-0.04-1.69,0.13-1.76,1.34c-0.08,1.43,0.96,0.93,1.63,1c0.71,0.07,1.43-0.01,2.14,0.03
		c1.21,0.07,1.93,0.77,1.98,1.96c0.05,1.21-0.72,1.87-1.86,2.11c-0.23,0.05-0.47,0.04-0.71,0.06c-4.47,0.33-4.46,0.33-5.5,4.76
		c-0.25,1.08-0.52,2.16-0.85,3.21c-0.48,1.51-1.7,1.49-2.92,1.25c-1.28-0.26-1.59-1.21-1.35-2.36c0.35-1.71,0.79-3.39,1.12-5.1
		c0.11-0.58,0.78-1.44-0.43-1.7c-0.95-0.21-1.47,0.23-1.68,1.19c-0.42,1.93-0.93,3.85-1.32,5.79c-0.35,1.75-1.35,2.45-3.07,2.08
		c-1.75-0.39-1.61-1.73-1.37-3.02c0.28-1.48,0.58-2.95,1-4.39C7.13,58.44,6.86,57.9,5.5,58c-0.79,0.06-1.59,0.06-2.38-0.03
		c-1.25-0.14-2.13-0.82-2.09-2.15c0.04-1.32,0.91-1.95,2.22-1.96c1.03-0.01,2.07-0.1,3.09,0.01C8.09,54.07,8.56,53.19,8.45,51.5z
		 M14.5,53.81c0.48,0.04,0.67-0.59,0.74-1.38c0.08-0.83-0.42-0.86-1.03-0.87c-1.09-0.02-0.96,0.89-1.12,1.5
		C12.9,53.77,13.52,53.74,14.5,53.81z"/>
</g>
</svg>
